<svg width="123" height="123" viewBox="0 0 123 123" fill="none" xmlns="http://www.w3.org/2000/svg">
<path d="M61.4401 6.04868e-05C75.66 -0.0040042 89.4414 4.92291 100.436 13.9412C111.43 22.9595 118.957 35.5112 121.734 49.4573C124.511 63.4034 122.367 77.881 115.665 90.423C108.964 102.965 98.1215 112.795 84.9847 118.239C71.8479 123.682 57.23 124.402 43.622 120.275C30.014 116.149 18.258 107.431 10.3573 95.608C2.45649 83.785 -1.1001 69.5881 0.293534 55.4366C1.68717 41.2851 7.9448 28.0548 18.0001 18.0001C23.6968 12.2843 30.4675 7.75151 37.9227 4.66235C45.3778 1.5732 53.3703 -0.0112838 61.4401 6.04868e-05V6.04868e-05ZM71.4401 50.7401C72.0858 50.255 72.8866 50.0227 73.6917 50.087C74.4968 50.1514 75.2505 50.5078 75.8111 51.0892C76.3716 51.6707 76.7002 52.437 76.735 53.2439C76.7699 54.0507 76.5085 54.8425 76.0001 55.4701L63.4401 67.9101C62.8206 68.5214 61.9854 68.8641 61.1151 68.8641C60.2448 68.8641 59.4095 68.5214 58.7901 67.9101L46.3801 55.6501C45.8436 55.0197 45.5619 54.2118 45.5903 53.3846C45.6186 52.5573 45.9549 51.7705 46.5333 51.1784C47.1116 50.5863 47.8903 50.2316 48.7166 50.1838C49.543 50.136 50.3573 50.3986 51.0001 50.9201L57.8301 57.6901L57.8901 33.8501C57.898 32.9695 58.2555 32.1282 58.8837 31.5113C59.512 30.8943 60.3596 30.5521 61.2401 30.5601C62.1206 30.568 62.9619 30.9254 63.5789 31.5537C64.1959 32.1819 64.538 33.0295 64.5301 33.9101L64.4601 57.5601L71.3601 50.7401H71.4401ZM35.0001 81.1901V68.1901C35.008 67.3095 35.3655 66.4682 35.9937 65.8512C36.622 65.2343 37.4696 64.8921 38.3501 64.9001C39.2306 64.908 40.0719 65.2654 40.6889 65.8937C41.3059 66.5219 41.648 67.3695 41.6401 68.2501V77.7001C54.8134 77.7001 67.9801 77.7001 81.1401 77.7001V68.1901C81.144 67.7541 81.2338 67.3231 81.4043 66.9218C81.5748 66.5205 81.8226 66.1568 82.1337 65.8512C82.4448 65.5457 82.813 65.3045 83.2173 65.1413C83.6216 64.9781 84.0541 64.8961 84.4901 64.9001C84.9261 64.904 85.357 64.9938 85.7583 65.1643C86.1596 65.3347 86.5234 65.5826 86.8289 65.8937C87.1344 66.2048 87.3756 66.573 87.5388 66.9773C87.702 67.3816 87.784 67.8141 87.7801 68.2501V81.1601C87.7417 82.0092 87.3791 82.8112 86.7671 83.401C86.155 83.9907 85.34 84.3232 84.4901 84.3301C69.1034 84.3301 53.7201 84.3301 38.3401 84.3301C37.4864 84.3365 36.6631 84.0138 36.0412 83.4291C35.4192 82.8443 35.0463 82.0425 35.0001 81.1901V81.1901ZM99.4401 23.4401C90.6486 14.6486 79.0808 9.17736 66.7076 7.95868C54.3345 6.74 41.9216 9.84925 31.5838 16.7567C21.2461 23.664 13.6233 33.9422 10.0142 45.8399C6.405 57.7375 7.03286 70.5185 11.7907 82.0052C16.5486 93.4918 25.1422 102.973 36.1071 108.834C47.072 114.695 59.7299 116.573 71.9241 114.147C84.1182 111.722 95.0941 105.143 102.982 95.5323C110.869 85.9215 115.18 73.8731 115.18 61.4401C115.189 54.3815 113.803 47.3908 111.102 40.8696C108.4 34.3483 104.437 28.425 99.4401 23.4401V23.4401Z" fill="#091133"/>
</svg>
