<svg width="118" height="123" viewBox="0 0 118 123" fill="none" xmlns="http://www.w3.org/2000/svg">
<g clip-path="url(#clip0_291_59)">
<path d="M102.31 30.86L78 5.74V5.49H12.44V46L46.66 76.6L46.81 76.74L58.36 87.06L105 46.36V36.36L102.36 30.87L102.31 30.86ZM110.44 41.57C111.105 40.9671 111.972 40.6352 112.87 40.64C113.599 40.6487 114.311 40.8561 114.93 41.24C115.406 41.5256 115.831 41.8871 116.19 42.31C117.211 43.5026 117.806 45.0016 117.88 46.57V117.21C117.873 118.71 117.277 120.146 116.22 121.21V121.21C115.159 122.271 113.72 122.868 112.22 122.87H5.67002C4.17044 122.863 2.73365 122.267 1.67002 121.21V121.21C1.14253 120.686 0.724195 120.063 0.439251 119.376C0.154307 118.69 0.00841504 117.953 0.0100229 117.21V46.57C0.0850081 44.9765 0.694424 43.4548 1.74002 42.25C2.10874 41.8567 2.53328 41.5198 3.00002 41.25C3.60379 40.8835 4.29384 40.6834 5.00002 40.67C5.70833 40.6585 6.4042 40.8568 7.00002 41.24V2.74C6.99995 2.02018 7.28313 1.32925 7.78836 0.816534C8.29359 0.303818 8.98028 0.0105083 9.70002 0L78.9 0C79.3023 0.000353392 79.6995 0.090278 80.0628 0.263247C80.426 0.436216 80.7462 0.687889 81 1L109.65 30.59C110.149 31.0965 110.429 31.7789 110.43 32.49V32.49V33.28C110.43 33.39 110.43 33.5 110.43 33.62C110.43 33.74 110.43 33.84 110.43 33.95V41.58L110.44 41.57ZM56.52 92.74L44.9 82.36L5.49002 116.9V117.21C5.4728 117.252 5.4728 117.298 5.49002 117.34V117.34C5.53237 117.353 5.57768 117.353 5.62002 117.34H112.21C112.252 117.353 112.298 117.353 112.34 117.34V117.34C112.357 117.298 112.357 117.252 112.34 117.21V117L72.45 82L60.15 92.76C59.6508 93.2022 59.0069 93.4463 58.34 93.4463C57.6731 93.4463 57.0293 93.2022 56.53 92.76L56.52 92.74ZM40.79 78.74L5.49002 47.15V109.63L40.79 78.69V78.74ZM112.39 109.8V47.12L76.6 78.39L112.39 109.75V109.8Z" fill="white"/>
<path fill-rule="evenodd" clip-rule="evenodd" d="M59.9401 15.42C64.936 15.42 69.8198 16.9015 73.9738 19.6771C78.1277 22.4527 81.3654 26.3978 83.2773 31.0135C85.1891 35.6291 85.6894 40.7081 84.7147 45.608C83.74 50.508 81.3342 55.0089 77.8016 58.5416C74.2689 62.0742 69.768 64.48 64.868 65.4547C59.9681 66.4293 54.8891 65.9291 50.2735 64.0172C45.6578 62.1054 41.7127 58.8677 38.9371 54.7137C36.1615 50.5598 34.6801 45.676 34.6801 40.68C34.6801 33.9807 37.3414 27.5557 42.0785 22.8185C46.8157 18.0814 53.2407 15.42 59.9401 15.42V15.42Z" fill="#00A912"/>
<path fill-rule="evenodd" clip-rule="evenodd" d="M52.1 36.66L56.57 40.89L67.16 30.17C68.03 29.28 68.58 28.56 69.66 29.68L73.17 33.27C74.32 34.41 74.27 35.08 73.17 36.14L58.58 50.5C56.29 52.75 56.69 52.89 54.36 50.58L46.19 42.46C46.0751 42.3591 45.9849 42.2332 45.9263 42.092C45.8677 41.9508 45.8422 41.798 45.8519 41.6454C45.8615 41.4928 45.906 41.3445 45.982 41.2118C46.0579 41.0791 46.1633 40.9656 46.29 40.88L50.36 36.66C50.98 36.01 51.47 36.06 52.1 36.66V36.66Z" fill="white"/>
</g>
<defs>
<clipPath id="clip0_291_59">
<rect width="117.88" height="122.88" fill="white"/>
</clipPath>
</defs>
</svg>
