<svg width="17" height="17" viewBox="0 0 17 17" fill="none" xmlns="http://www.w3.org/2000/svg">
<path d="M6.38462 13.8599C2.53846 14.9299 2.53846 12.0764 1 11.7197M11.7692 16V13.2392C11.7981 12.8991 11.7485 12.5571 11.6239 12.2361C11.4992 11.9151 11.3023 11.6223 11.0462 11.3773C13.4615 11.1276 16 10.2787 16 6.3837C15.9998 5.3877 15.5867 4.4299 14.8462 3.70854C15.1968 2.83716 15.172 1.87399 14.7769 1.01911C14.7769 1.01911 13.8692 0.769432 11.7692 2.07491C10.0062 1.63178 8.14769 1.63178 6.38462 2.07491C4.28462 0.769432 3.37692 1.01911 3.37692 1.01911C2.98183 1.87399 2.95703 2.83716 3.30769 3.70854C2.56164 4.43525 2.14809 5.40171 2.15385 6.4051C2.15385 10.2716 4.69231 11.1205 7.10769 11.3987C6.85461 11.6413 6.65943 11.9305 6.53485 12.2476C6.41027 12.5647 6.35908 12.9026 6.38462 13.2392V16" stroke="white" stroke-width="2" stroke-linecap="round" stroke-linejoin="round"/>
</svg>
