<svg width="115" height="123" viewBox="0 0 115 123" fill="none" xmlns="http://www.w3.org/2000/svg">
<path d="M88.8899 50.07V77.07H97.3399C97.8978 77.0727 98.4319 77.2961 98.8255 77.6915C99.219 78.087 99.44 78.6221 99.4399 79.18V96.43C99.44 96.9879 99.219 97.5231 98.8255 97.9185C98.4319 98.3139 97.8978 98.5374 97.3399 98.54H80.6999V119.54C80.6973 120.433 80.3414 121.289 79.71 121.92C79.0786 122.551 78.2229 122.907 77.3299 122.91H74.1699C73.2743 122.907 72.4161 122.55 71.7828 121.917C71.1495 121.284 70.7926 120.426 70.7899 119.53V98.53H44.2499V119.53C44.2473 120.423 43.8914 121.279 43.26 121.91C42.6286 122.541 41.7729 122.897 40.8799 122.9H37.7199C36.8251 122.895 35.9685 122.537 35.3357 121.904C34.703 121.271 34.3452 120.415 34.3399 119.52V98.52H17.7099C17.1503 98.52 16.6137 98.2977 16.2179 97.902C15.8222 97.5063 15.5999 96.9696 15.5999 96.41V79.21C15.5999 78.6504 15.8222 78.1137 16.2179 77.718C16.6137 77.3223 17.1503 77.1 17.7099 77.1H26.1499V50.1C26.1499 33.88 34.2899 23.45 44.7099 18.85C48.75 17.0851 53.1112 16.1741 57.5199 16.1741C61.9287 16.1741 66.2899 17.0851 70.3299 18.85C80.7499 23.45 88.8899 33.85 88.8899 50.1V50.07ZM18.5999 34.5C19.5401 34.7652 20.3365 35.3931 20.8137 36.2454C21.291 37.0978 21.4102 38.1048 21.1449 39.045C20.8797 39.9852 20.2519 40.7815 19.3995 41.2588C18.5472 41.7361 17.5401 41.8552 16.5999 41.59L2.68994 37.59C2.22441 37.4587 1.7893 37.237 1.40945 36.9375C1.02961 36.638 0.712469 36.2666 0.476144 35.8446C-0.00113639 34.9922 -0.120273 33.9852 0.144944 33.045C0.41016 32.1048 1.038 31.3085 1.89036 30.8312C2.74271 30.3539 3.74975 30.2348 4.68994 30.5L18.5999 34.5ZM98.4499 41.59C97.5098 41.8552 96.5027 41.7361 95.6504 41.2588C94.798 40.7815 94.1702 39.9852 93.9049 39.045C93.6397 38.1048 93.7589 37.0978 94.2361 36.2454C94.7134 35.3931 95.5098 34.7652 96.4499 34.5L110.36 30.5C111.279 30.2995 112.239 30.4573 113.045 30.9411C113.852 31.425 114.443 32.1984 114.698 33.1033C114.953 34.0083 114.854 34.9766 114.419 35.8105C113.984 36.6444 113.248 37.2809 112.36 37.59L98.4399 41.59H98.4499ZM31.4499 9.74001C31.7861 10.086 32.0509 10.4949 32.229 10.9433C32.4072 11.3916 32.4953 11.8706 32.4884 12.353C32.4814 12.8354 32.3795 13.3117 32.1884 13.7548C31.9974 14.1978 31.721 14.5988 31.3749 14.935C31.0289 15.2712 30.6201 15.5359 30.1717 15.7141C29.7234 15.8923 29.2443 15.9804 28.7619 15.9734C28.2795 15.9665 27.8032 15.8646 27.3602 15.6735C26.9172 15.4825 26.5161 15.206 26.1799 14.86L17.8199 6.24001C17.1829 5.5332 16.8444 4.6071 16.8754 3.65607C16.9065 2.70503 17.3047 1.803 17.9866 1.13928C18.6684 0.475555 19.5808 0.101739 20.5324 0.0962825C21.4839 0.0908256 22.4005 0.454152 23.0899 1.11001L31.4399 9.74001H31.4499ZM88.6799 15.07C88.3431 15.4154 87.9415 15.691 87.4982 15.8812C87.0548 16.0714 86.5783 16.1724 86.0959 16.1784C85.6135 16.1845 85.1346 16.0954 84.6867 15.9164C84.2387 15.7374 83.8303 15.4719 83.4849 15.135C83.1396 14.7982 82.8639 14.3966 82.6737 13.9532C82.4836 13.5099 82.3826 13.0334 82.3765 12.551C82.3705 12.0686 82.4595 11.5897 82.6386 11.1417C82.8176 10.6937 83.0831 10.2854 83.4199 9.94001L91.9999 1.11001C92.6894 0.454152 93.606 0.0908256 94.5575 0.0962825C95.509 0.101739 96.4215 0.475555 97.1033 1.13928C97.7852 1.803 98.1834 2.70503 98.2145 3.65607C98.2455 4.6071 97.907 5.5332 97.2699 6.24001L88.7199 15.07H88.6799ZM52.4499 30.49C52.7888 30.3458 53.1543 30.2743 53.5225 30.2803C53.8908 30.2863 54.2537 30.3695 54.5878 30.5247C54.9218 30.6798 55.2196 30.9034 55.4617 31.1809C55.7038 31.4585 55.885 31.7838 55.9934 32.1358C56.1018 32.4878 56.1351 32.8586 56.0911 33.2243C56.047 33.59 55.9267 33.9424 55.7378 34.2586C55.5489 34.5748 55.2958 34.8478 54.9947 35.0599C54.6936 35.2721 54.3513 35.4186 53.9899 35.49C48.3799 37.23 45.1499 39.88 43.3199 43.34C41.3999 46.99 40.8499 51.71 40.6999 57.34C40.6914 57.6841 40.6152 58.0231 40.4756 58.3377C40.3361 58.6523 40.1359 58.9363 39.8866 59.1736C39.6373 59.4108 39.3437 59.5967 39.0225 59.7205C38.7014 59.8442 38.359 59.9035 38.0149 59.895C37.6709 59.8865 37.3319 59.8103 37.0173 59.6707C36.7027 59.5311 36.4186 59.331 36.1814 59.0817C35.9441 58.8323 35.7583 58.5387 35.6345 58.2176C35.5107 57.8965 35.4514 57.5541 35.4599 57.21C35.6299 50.87 36.2899 45.44 38.6699 40.92C41.1499 36.23 45.3299 32.71 52.4499 30.5V30.49ZM86.4499 81.32H19.8099V94.32H95.2299V81.32H86.4499ZM83.5899 76.06V50.06C83.5899 36.25 76.8299 27.44 68.1799 23.63C64.8079 22.1593 61.1687 21.4002 57.4899 21.4002C53.8112 21.4002 50.172 22.1593 46.7999 23.63C38.1499 27.44 31.3899 36.25 31.3899 50.06V76.06H83.5899Z" fill="#F7DF1E"/>
</svg>
