<svg width="123" height="99" viewBox="0 0 123 99" fill="none" xmlns="http://www.w3.org/2000/svg">
<path fill-rule="evenodd" clip-rule="evenodd" d="M7.55 16.44L7.2 39.99V89.31C7.2 89.89 7.43 90.4 7.81 90.79C8.2 91.18 8.71 91.4 9.29 91.4H95.41C95.99 91.4 96.5 91.17 96.89 90.79C97.28 90.4 97.5 89.89 97.5 89.31L104.39 89.32V90.97C104.39 95.13 100.99 98.52 96.84 98.52H7.55C3.4 98.53 0 95.13 0 90.97V23.99C0 19.84 3.4 16.44 7.55 16.44ZM26.04 0H115.33C119.49 0 122.88 3.4 122.88 7.55V74.53C122.88 78.68 119.48 82.08 115.33 82.08H26.04C21.89 82.08 18.49 78.68 18.49 74.53V7.55C18.48 3.4 21.88 0 26.04 0ZM116.02 23.55H25.68V72.87C25.68 73.45 25.91 73.96 26.29 74.35C26.68 74.74 27.19 74.96 27.77 74.96H113.89C114.47 74.96 114.98 74.73 115.37 74.35C115.76 73.96 115.98 73.45 115.98 72.87V23.55H116.02ZM108.14 8.49C110.2 8.49 111.87 10.16 111.87 12.22C111.87 14.28 110.2 15.95 108.14 15.95C106.08 15.95 104.41 14.28 104.41 12.22C104.4 10.16 106.07 8.49 108.14 8.49ZM82.85 8.49C84.91 8.49 86.58 10.16 86.58 12.22C86.58 14.28 84.91 15.95 82.85 15.95C80.79 15.95 79.12 14.28 79.12 12.22C79.11 10.16 80.78 8.49 82.85 8.49ZM95.49 8.49C97.55 8.49 99.22 10.16 99.22 12.22C99.22 14.28 97.55 15.95 95.49 15.95C93.43 15.95 91.76 14.28 91.76 12.22C91.76 10.16 93.43 8.49 95.49 8.49Z" fill="white"/>
</svg>
