<svg width="123" height="124" viewBox="0 0 123 124" fill="none" xmlns="http://www.w3.org/2000/svg">
<path fill-rule="evenodd" clip-rule="evenodd" d="M2.33001 45.5801L117.33 1.37005C117.985 1.04474 118.724 0.925034 119.448 1.02663C120.173 1.12822 120.85 1.44637 121.39 1.93936C121.931 2.43236 122.31 3.07719 122.477 3.78932C122.645 4.50144 122.594 5.24763 122.33 5.93005L78.33 121.54C78.0783 122.205 77.6367 122.781 77.0603 123.198C76.4838 123.614 75.7978 123.852 75.0874 123.882C74.377 123.911 73.6735 123.732 73.0642 123.365C72.4549 122.999 71.9666 122.462 71.66 121.82L53.93 85.14L89.12 34.7701L38.85 69.86L2.06001 52.2401C1.42118 51.933 0.886214 51.4457 0.521118 50.8381C0.156022 50.2306 -0.0232284 49.5295 0.00548263 48.8213C0.0341937 48.1131 0.26961 47.4288 0.682686 46.8528C1.09576 46.2768 1.66842 45.8344 2.33001 45.5801V45.5801Z" fill="white"/>
</svg>
