<svg width="123" height="123" viewBox="0 0 123 123" fill="none" xmlns="http://www.w3.org/2000/svg">
<g clip-path="url(#clip0_287_14)">
<path fill-rule="evenodd" clip-rule="evenodd" d="M92.4501 8.98C91.1001 8.04 89.5701 7.63 88.0101 7.94C86.4501 8.25 85.1301 9.09 84.1901 10.4L78.9201 17.83C77.0501 17 75.1 16.37 73.0201 15.85C70.9401 15.33 68.9901 14.91 66.9101 14.6L65.2401 4.88C64.9401 3.21 64.0901 2 62.8901 1.06C61.5401 0.12 60.1101 -0.19 58.4501 0.12L46.2601 2.31C44.7001 2.62 43.4801 3.35 42.4401 4.7C41.5001 6.05 41.0901 7.48 41.4001 9.14L42.9601 18.02C40.9801 18.85 39.1401 19.79 37.3701 20.9C35.6001 21.94 33.8701 23.19 32.3001 24.4L24.0401 18.71C22.6901 17.77 21.2601 17.36 19.7001 17.67C18.1401 17.98 16.8201 18.82 15.8801 20.17L8.85006 30.22C7.91006 31.57 7.50005 33.1 7.81005 34.66C8.12005 36.33 8.96006 37.54 10.3101 38.48L17.7401 43.75C16.9101 45.62 16.2801 47.57 15.7601 49.65C15.2401 51.73 14.8201 53.68 14.5101 55.76L4.80006 57.42C-3.43994 58.97 1.22005 70.78 2.23005 76.4C2.54005 77.96 3.27005 79.18 4.59005 80.22C5.94006 81.16 7.37006 81.57 9.03006 81.26L17.9101 79.7C18.7401 81.68 19.6801 83.52 20.7901 85.29C21.8301 87.06 23.0801 88.79 24.2901 90.46L18.6001 98.62C17.6601 99.97 17.2501 101.4 17.5601 102.96C17.8701 104.52 18.7001 105.84 20.0201 106.78L30.1501 113.89C31.5001 114.83 33.0301 115.14 34.5901 114.83C36.1501 114.52 37.4701 113.79 38.5101 112.47L43.7901 104.94C45.6601 105.77 47.6101 106.4 49.6901 106.92C51.7701 107.44 53.7101 107.86 55.8001 108.17L57.4701 117.89C57.7801 119.56 58.6201 120.77 59.8301 121.71C61.1801 122.65 62.6101 122.96 64.2701 122.65L76.4501 120.46C78.0101 120.15 79.2301 119.42 80.2701 118.1C81.2101 116.75 81.6201 115.32 81.3101 113.66L79.7501 104.78C81.7301 103.95 83.57 103.01 85.34 101.9C87.11 100.86 88.8501 99.64 90.5101 98.4L98.6701 104.09C100.02 105.03 101.45 105.44 103.11 105.13C104.78 104.82 105.99 103.98 106.93 102.67L114.04 92.53C114.98 91.18 115.29 89.65 114.98 88.09C114.67 86.53 113.94 85.21 112.59 84.17L105.05 79C105.88 77.13 106.51 75.18 107.03 73.1C107.55 71.02 107.97 69.07 108.28 66.99L118 65.32C119.67 65.01 120.88 64.17 121.82 62.93C122.76 61.58 123.07 60.15 122.76 58.49L120.57 46.31C120.26 44.75 119.53 43.53 118.21 42.49C116.86 41.55 115.43 41.14 113.77 41.45L104.89 43.01C104.06 41.14 103.12 39.3 102.01 37.42C100.97 35.55 99.7201 33.92 98.5101 32.35L104.2 24.09C105.14 22.74 105.55 21.31 105.24 19.75C104.93 18.19 104.09 16.87 102.78 15.93L92.7301 8.87L92.4501 8.98ZM57.1201 44.41H62.2401C63.1701 44.41 63.9401 45.18 63.9401 46.11V63.23H78.9701C79.9101 63.23 80.6801 64 80.6801 64.93V70.05C80.6801 70.99 79.9101 71.75 78.9701 71.75H55.4001V46.12C55.4001 45.18 56.1701 44.41 57.1201 44.41ZM55.4101 28.79C59.8001 28.07 64.2501 28.07 68.6401 29.08C72.8901 30.08 76.7601 31.8 80.2901 34.19C83.6801 36.63 86.6901 39.73 89.1301 43.45C91.5701 47.13 93.1001 51.29 93.8101 55.68C94.5301 60.07 94.5301 64.52 93.5201 68.91C92.5201 73.16 90.8001 77.03 88.4101 80.56C85.9701 83.95 82.8701 86.96 79.1401 89.4C75.4601 91.84 71.3001 93.37 66.9101 94.08C62.5201 94.8 58.0701 94.8 53.6801 93.79C49.4301 92.79 45.5601 91.07 42.0301 88.68C38.6401 86.24 35.6301 83.14 33.1901 79.42C30.7501 75.74 29.2201 71.58 28.5101 67.19C27.7901 62.8 27.7901 58.35 28.8001 53.96C29.8001 49.71 31.5201 45.84 33.9101 42.31C36.3501 38.92 39.4501 35.91 43.1801 33.47C46.9101 31.08 51.0101 29.5 55.4101 28.79Z" fill="white"/>
</g>
<defs>
<clipPath id="clip0_287_14">
<rect width="122.88" height="122.77" fill="white"/>
</clipPath>
</defs>
</svg>
